# Exported from Wings 3D 1.5.1
mtllib PushLeft.mtl
o Cube2
#14 vertices, 11 faces
v 0.74885056 0.57523379 -3.2572000e-2
v 0.74885056 0.57523379 3.2572000e-2
v 1.12819921 0.72545586 -3.2572000e-2
v 1.12819921 0.72545586 3.2572000e-2
v 0.79220469 0.55806556 -3.2572000e-2
v 0.79220469 0.55806556 3.2572000e-2
v 1.17155334 0.70828762 -3.2572000e-2
v 1.17155334 0.70828762 3.2572000e-2
v 1.08159786 0.70700173 3.2572000e-2
v 1.08159786 0.70700173 -3.2572000e-2
v 0.75657198 0.83571198 -3.2572000e-2
v 0.75657198 0.83571198 3.2572000e-2
v 0.80317332 0.85416611 3.2572000e-2
v 0.80317332 0.85416611 -3.2572000e-2
vn -0.59294993 2.6819857e-16 -0.80523933
vn -0.59294993 2.6819857e-16 0.80523933
vn 0.26034428 0.65743506 -0.70710678
vn 0.26034428 0.65743506 0.70710678
vn -4.9954563e-16 -0.88072268 -0.47363231
vn -4.9954563e-16 -0.88072268 0.47363231
vn 0.59294993 -8.9399525e-17 -0.80523933
vn 0.59294993 -8.9399525e-17 0.80523933
vn -0.34550817 -5.2092538e-17 0.93841574
vn -0.34550817 -5.2092538e-17 -0.93841574
vn -0.59294993 -1.7879905e-16 -0.80523933
vn -0.59294993 -1.7879905e-16 0.80523933
vn -2.3662688e-16 0.88072268 0.47363231
vn -2.3662688e-16 0.88072268 -0.47363231
g Cube2_default
usemtl default
s 1
f 1//1 5//5 6//6 2//2
f 2//2 6//6 8//8 4//4 9//9
f 2//2 9//9 10//10 1//1
f 3//3 14//14 13//13 4//4
f 4//4 8//8 7//7 3//3
f 4//4 13//13 12//12 9//9
f 5//5 7//7 8//8 6//6
f 9//9 12//12 11//11 10//10
f 10//10 3//3 7//7 5//5 1//1
f 10//10 11//11 14//14 3//3
f 12//12 13//13 14//14 11//11
