# Exported from Wings 3D 1.5.1
mtllib whiteblock.mtl
o sphere2
#128 vertices, 224 faces
v 0.69042164 0.70383615 0.70337633
v 0.63786643 0.55261568 0.70337633
v 0.48820183 0.42441713 0.70337633
v 0.26421293 0.33875761 0.70337633
v 3.8114341e-17 0.30867799 0.70337633
v -0.26421293 0.33875761 0.70337633
v -0.48820183 0.42441713 0.70337633
v -0.63786643 0.55261568 0.70337633
v -0.69042164 0.70383615 0.70337633
v -0.63786643 0.85505664 0.70337633
v -0.48820183 0.98325516 0.70337633
v -0.26421293 1.06891468 0.70337633
v -1.3099019e-16 1.09899431 0.70337633
v 0.26421293 1.06891468 0.70337633
v 0.48820183 0.98325516 0.70337633
v 0.63786643 0.85505664 0.70337633
v 0.92695992 0.70383615 0.53551986
v 0.83043228 0.43727520 0.51850836
v 0.60625808 0.41826933 0.49426424
v 0.31938765 0.17041492 0.48111711
v 3.5133093e-17 0.13984429 0.47724297
v -0.31938765 0.17041492 0.48111711
v -0.60625808 0.41826933 0.49426424
v -0.83043228 0.43727520 0.51850836
v -0.92695992 0.70383615 0.53551986
v -0.83043228 0.97039710 0.51850836
v -0.60625808 0.98940298 0.49426424
v -0.31938765 1.23725738 0.48111711
v -1.4558090e-16 1.26782801 0.47724297
v 0.31938765 1.23725738 0.48111711
v 0.60625808 0.98940298 0.49426424
v 0.83043228 0.97039710 0.51850836
v 1.01093024 0.70383615 0.21430217
v 0.93397777 0.45647387 0.21430217
v 0.71483563 0.19052128 0.21430217
v 0.38686626 0.10665077 0.21430217
v 6.7606843e-17 5.7447350e-2 0.21430217
v -0.38686626 0.10665077 0.21430217
v -0.71483563 0.19052128 0.21430217
v -0.93397777 0.45647387 0.21430217
v -1.01093024 0.70383615 0.21430217
v -0.93397777 0.95119844 0.21430217
v -0.71483563 1.21715101 0.21430217
v -0.38686626 1.30102153 0.21430217
v -1.7999965e-16 1.35022495 0.21430217
v 0.38686626 1.30102153 0.21430217
v 0.71483563 1.21715101 0.21430217
v 0.93397777 0.95119844 0.21430217
v 1.04300651 0.70383615 3.9281617e-17
v 0.96415620 0.45091447 6.3721588e-17
v 0.73849130 3.9801184e-2 8.4742208e-17
v 0.39981975 9.0474016e-2 9.8642439e-17
v 5.5185609e-17 3.9629052e-2 1.0388395e-16
v -0.39981975 9.0474016e-2 9.8617375e-17
v -0.73849130 3.9801184e-2 8.4830580e-17
v -0.96415620 0.45091447 6.3741111e-17
v -1.04300651 0.70383615 3.9254314e-17
v -0.96415620 0.95675785 1.4295396e-17
v -0.73849130 1.36787111 -5.6355710e-18
v -0.39981975 1.31719828 -2.0968563e-17
v -2.0119304e-16 1.36804325 -2.4280351e-17
v 0.39981975 1.31719828 -1.9192085e-17
v 0.73849130 1.36787111 -5.5976976e-18
v 0.96415620 0.95675785 1.4301903e-17
v 1.01093024 0.70383615 -0.21430217
v 0.93397777 0.45647387 -0.21430217
v 0.71483563 0.19052128 -0.21430217
v 0.38686626 0.10665077 -0.21430217
v 6.7606843e-17 5.7447350e-2 -0.21430217
v -0.38686626 0.10665077 -0.21430217
v -0.71483563 0.19052128 -0.21430217
v -0.93397777 0.45647387 -0.21430217
v -1.01093024 0.70383615 -0.21430217
v -0.93397777 0.95119844 -0.21430217
v -0.71483563 1.21715101 -0.21430217
v -0.38686626 1.30102153 -0.21430217
v -1.7999965e-16 1.35022495 -0.21430217
v 0.38686626 1.30102153 -0.21430217
v 0.71483563 1.21715101 -0.21430217
v 0.93397777 0.95119844 -0.21430217
v 0.92695992 0.70383615 -0.53551986
v 0.83043228 0.43727520 -0.51850836
v 0.60625808 0.41826933 -0.49426424
v 0.31938765 0.17041492 -0.48111711
v 3.6827336e-17 0.13984429 -0.47724297
v -0.31938765 0.17041492 -0.48111711
v -0.60625808 0.41826933 -0.49426424
v -0.83043228 0.43727520 -0.51850836
v -0.92695992 0.70383615 -0.53551986
v -0.83043228 0.97039710 -0.51850836
v -0.60625808 0.98940298 -0.49426424
v -0.31938765 1.23725738 -0.48111711
v -2.4384704e-16 1.26782801 -0.47724297
v 0.31938765 1.23725738 -0.48111711
v 0.60625808 0.98940298 -0.49426424
v 0.83043228 0.97039710 -0.51850836
v 0.69042164 0.70383615 -0.70337633
v 0.63786643 0.55261568 -0.70337633
v 0.48820183 0.42441713 -0.70337633
v 0.26421293 0.33875761 -0.70337633
v 3.8114341e-17 0.30867799 -0.70337633
v -0.26421293 0.33875761 -0.70337633
v -0.48820183 0.42441713 -0.70337633
v -0.63786643 0.55261568 -0.70337633
v -0.69042164 0.70383615 -0.70337633
v -0.63786643 0.85505664 -0.70337633
v -0.48820183 0.98325516 -0.70337633
v -0.26421293 1.06891468 -0.70337633
v -1.3099019e-16 1.09899431 -0.70337633
v 0.26421293 1.06891468 -0.70337633
v 0.48820183 0.98325516 -0.70337633
v 0.63786643 0.85505664 -0.70337633
v 3.3434014e-2 0.68470042 0.0000000e+0
v 1.8094358e-2 0.67883411 0.0000000e+0
v -3.1448336e-18 0.67677414 0.0000000e+0
v -1.8094358e-2 0.67883411 0.0000000e+0
v -3.3434014e-2 0.68470042 0.0000000e+0
v -4.3683645e-2 0.69347997 0.0000000e+0
v -4.7282836e-2 0.70383615 0.0000000e+0
v -4.3683645e-2 0.71419234 0.0000000e+0
v -3.3434014e-2 0.72297188 0.0000000e+0
v -1.8094358e-2 0.72883819 0.0000000e+0
v -1.4725788e-17 0.73089816 0.0000000e+0
v 1.8094358e-2 0.72883819 0.0000000e+0
v 3.3434014e-2 0.72297188 0.0000000e+0
v 4.3683645e-2 0.71419234 0.0000000e+0
v 4.7282836e-2 0.70383615 0.0000000e+0
v 4.3683645e-2 0.69347997 0.0000000e+0
vn 0.20102821 1.5865438e-9 0.97958545
vn -7.7055248e-2 5.8246660e-2 0.99532398
vn 0.16400341 -0.45668277 0.87438191
vn -1.8666496e-2 8.0109188e-2 0.99661130
vn -7.2662499e-17 -0.38637689 0.92234099
vn 1.8666496e-2 8.0109188e-2 0.99661130
vn -0.16400341 -0.45668277 0.87438191
vn 7.7055248e-2 5.8246660e-2 0.99532398
vn -0.20102821 1.5865438e-9 0.97958545
vn 7.7055239e-2 -5.8246655e-2 0.99532398
vn -0.16400341 0.45668276 0.87438192
vn 1.8666497e-2 -8.0109191e-2 0.99661130
vn 5.3540789e-17 0.38637689 0.92234099
vn -1.8666497e-2 -8.0109191e-2 0.99661130
vn 0.16400341 0.45668276 0.87438192
vn -7.7055239e-2 -5.8246655e-2 0.99532398
vn 0.81958916 -5.4394493e-11 0.57295167
vn 0.61249407 -0.57475736 0.54268314
vn 0.31037062 -0.82902430 0.46517608
vn 0.25494008 -0.83907748 0.48057729
vn -7.0609538e-17 -0.89037723 0.45522346
vn -0.25494008 -0.83907748 0.48057729
vn -0.31037062 -0.82902430 0.46517608
vn -0.61249407 -0.57475736 0.54268314
vn -0.81958916 -5.4394493e-11 0.57295167
vn -0.61249407 0.57475736 0.54268314
vn -0.31037063 0.82902429 0.46517609
vn -0.25494008 0.83907748 0.48057729
vn 2.1182861e-17 0.89037723 0.45522346
vn 0.25494008 0.83907748 0.48057729
vn 0.31037063 0.82902429 0.46517609
vn 0.61249407 0.57475736 0.54268314
vn 0.97686935 -7.5753220e-9 0.21383702
vn 0.86188114 -0.46695132 0.19778113
vn 0.43786024 -0.79970052 0.41080102
vn 0.18418614 -0.96642985 0.17913348
vn 1.7556268e-17 -0.98317028 0.18269156
vn -0.18418614 -0.96642985 0.17913348
vn -0.43786024 -0.79970052 0.41080102
vn -0.86188114 -0.46695132 0.19778113
vn -0.97686935 -7.5753220e-9 0.21383702
vn -0.86188113 0.46695133 0.19778114
vn -0.43786024 0.79970053 0.41080101
vn -0.18418615 0.96642985 0.17913347
vn -6.3202563e-17 0.98317028 0.18269156
vn 0.18418615 0.96642985 0.17913347
vn 0.43786024 0.79970053 0.41080101
vn 0.86188113 0.46695133 0.19778114
vn 1.00000000 -9.8883534e-9 -7.3421118e-18
vn 0.90150974 -0.43275881 6.1469710e-17
vn 0.47588090 -0.87950973 2.3261187e-16
vn 9.9453102e-2 -0.99504225 1.0098306e-16
vn 2.1055591e-17 -1.00000000 3.8601917e-17
vn -9.9453102e-2 -0.99504225 6.4261947e-17
vn -0.47588090 -0.87950973 1.3569026e-16
vn -0.90150974 -0.43275881 5.2430047e-17
vn -1.00000000 -9.8883534e-9 3.6710559e-17
vn -0.90150974 0.43275881 -3.6158653e-18
vn -0.47588090 0.87950973 7.7537288e-17
vn -9.9453114e-2 0.99504225 -1.2485178e-16
vn -8.4222363e-17 1.00000000 -1.7546326e-16
vn 9.9453114e-2 0.99504225 -1.1750756e-16
vn 0.47588090 0.87950973 -1.9384322e-17
vn 0.90150974 0.43275881 -5.9661778e-17
vn 0.97686935 -7.5753222e-9 -0.21383702
vn 0.86188114 -0.46695132 -0.19778113
vn 0.43786024 -0.79970052 -0.41080102
vn 0.18418614 -0.96642985 -0.17913348
vn 7.0225071e-18 -0.98317028 -0.18269156
vn -0.18418614 -0.96642985 -0.17913348
vn -0.43786024 -0.79970052 -0.41080102
vn -0.86188114 -0.46695132 -0.19778113
vn -0.97686935 -7.5753222e-9 -0.21383702
vn -0.86188113 0.46695133 -0.19778114
vn -0.43786024 0.79970053 -0.41080101
vn -0.18418615 0.96642985 -0.17913347
vn -5.4424430e-17 0.98317028 -0.18269156
vn 0.18418615 0.96642985 -0.17913347
vn 0.43786024 0.79970053 -0.41080101
vn 0.86188113 0.46695133 -0.19778114
vn 0.81958916 -5.4394509e-11 -0.57295167
vn 0.61249407 -0.57475736 -0.54268314
vn 0.31037062 -0.82902430 -0.46517608
vn 0.25494008 -0.83907748 -0.48057729
vn -3.5304769e-18 -0.89037723 -0.45522346
vn -0.25494008 -0.83907748 -0.48057729
vn -0.31037062 -0.82902430 -0.46517608
vn -0.61249407 -0.57475736 -0.54268314
vn -0.81958916 -5.4394493e-11 -0.57295167
vn -0.61249407 0.57475736 -0.54268314
vn -0.31037063 0.82902429 -0.46517609
vn -0.25494008 0.83907748 -0.48057729
vn -7.0609538e-17 0.89037723 -0.45522346
vn 0.25494008 0.83907748 -0.48057729
vn 0.31037063 0.82902429 -0.46517609
vn 0.61249407 0.57475736 -0.54268314
vn 0.20102821 1.5865437e-9 -0.97958545
vn -7.7055248e-2 5.8246660e-2 -0.99532398
vn 0.16400341 -0.45668277 -0.87438191
vn -1.8666496e-2 8.0109188e-2 -0.99661130
vn 1.1473026e-17 -0.38637689 -0.92234099
vn 1.8666496e-2 8.0109188e-2 -0.99661130
vn -0.16400341 -0.45668277 -0.87438191
vn 7.7055248e-2 5.8246660e-2 -0.99532398
vn -0.20102821 1.5865437e-9 -0.97958545
vn 7.7055239e-2 -5.8246655e-2 -0.99532398
vn -0.16400341 0.45668276 -0.87438192
vn 1.8666497e-2 -8.0109191e-2 -0.99661130
vn -5.7365131e-17 0.38637689 -0.92234099
vn -1.8666497e-2 -8.0109191e-2 -0.99661130
vn 0.16400341 0.45668276 -0.87438192
vn -7.7055239e-2 -5.8246655e-2 -0.99532398
vn -0.50715149 0.86185693 0.0000000e+0
vn -0.23556708 0.97185809 0.0000000e+0
vn 0.0000000e+0 1.00000000 1.5742774e-17
vn 0.23556708 0.97185809 0.0000000e+0
vn 0.50715149 0.86185693 0.0000000e+0
vn 0.82016728 0.57212379 3.6498827e-17
vn 1.00000000 1.5682421e-8 -3.8826444e-17
vn 0.82016727 -0.57212381 0.0000000e+0
vn 0.50715147 -0.86185694 0.0000000e+0
vn 0.23556708 -0.97185809 0.0000000e+0
vn 5.5099710e-17 -1.00000000 1.5742774e-17
vn -0.23556708 -0.97185809 0.0000000e+0
vn -0.50715147 -0.86185694 0.0000000e+0
vn -0.82016727 -0.57212381 0.0000000e+0
vn -1.00000000 1.5682421e-8 -3.8826444e-17
vn -0.82016728 0.57212379 3.6498827e-17
g sphere2_default2
usemtl default2
s 1
f 1//1 18//18 17//17
f 1//1 32//32 16//16
f 1//1 127//127 128//128 2//2
f 2//2 18//18 1//1
f 2//2 128//128 113//113 3//3
f 3//3 18//18 2//2
f 3//3 19//19 18//18
f 3//3 20//20 19//19
f 3//3 113//113 114//114 4//4
f 4//4 20//20 3//3
f 4//4 114//114 115//115 5//5
f 5//5 20//20 4//4
f 5//5 21//21 20//20
f 5//5 22//22 21//21
f 5//5 115//115 116//116 6//6
f 6//6 22//22 5//5
f 6//6 116//116 117//117 7//7
f 7//7 22//22 6//6
f 7//7 23//23 22//22
f 7//7 24//24 23//23
f 7//7 117//117 118//118 8//8
f 8//8 24//24 7//7
f 8//8 118//118 119//119 9//9
f 9//9 24//24 8//8
f 9//9 25//25 24//24
f 9//9 26//26 25//25
f 9//9 119//119 120//120 10//10
f 10//10 26//26 9//9
f 10//10 120//120 121//121 11//11
f 11//11 26//26 10//10
f 11//11 27//27 26//26
f 11//11 28//28 27//27
f 11//11 121//121 122//122 12//12
f 12//12 28//28 11//11
f 12//12 122//122 123//123 13//13
f 13//13 28//28 12//12
f 13//13 29//29 28//28
f 13//13 30//30 29//29
f 13//13 123//123 124//124 14//14
f 14//14 30//30 13//13
f 14//14 124//124 125//125 15//15
f 15//15 30//30 14//14
f 15//15 31//31 30//30
f 15//15 32//32 31//31
f 15//15 125//125 126//126 16//16
f 16//16 32//32 15//15
f 16//16 126//126 127//127 1//1
f 17//17 32//32 1//1
f 17//17 33//33 32//32
f 18//18 33//33 17//17
f 18//18 34//34 33//33
f 18//18 35//35 34//34
f 19//19 35//35 18//18
f 20//20 35//35 19//19
f 20//20 36//36 35//35
f 20//20 37//37 36//36
f 21//21 37//37 20//20
f 22//22 37//37 21//21
f 22//22 38//38 37//37
f 22//22 39//39 38//38
f 23//23 39//39 22//22
f 24//24 39//39 23//23
f 24//24 40//40 39//39
f 24//24 41//41 40//40
f 25//25 41//41 24//24
f 26//26 41//41 25//25
f 26//26 42//42 41//41
f 26//26 43//43 42//42
f 27//27 43//43 26//26
f 28//28 43//43 27//27
f 28//28 44//44 43//43
f 28//28 45//45 44//44
f 29//29 45//45 28//28
f 30//30 45//45 29//29
f 30//30 46//46 45//45
f 30//30 47//47 46//46
f 31//31 47//47 30//30
f 32//32 47//47 31//31
f 32//32 48//48 47//47
f 33//33 48//48 32//32
f 33//33 50//50 49//49
f 33//33 64//64 48//48
f 34//34 50//50 33//33
f 35//35 50//50 34//34
f 35//35 51//51 50//50
f 35//35 52//52 51//51
f 36//36 52//52 35//35
f 37//37 52//52 36//36
f 37//37 53//53 52//52
f 37//37 54//54 53//53
f 38//38 54//54 37//37
f 39//39 54//54 38//38
f 39//39 55//55 54//54
f 39//39 56//56 55//55
f 40//40 56//56 39//39
f 41//41 56//56 40//40
f 41//41 57//57 56//56
f 41//41 58//58 57//57
f 42//42 58//58 41//41
f 43//43 58//58 42//42
f 43//43 59//59 58//58
f 43//43 60//60 59//59
f 44//44 60//60 43//43
f 45//45 60//60 44//44
f 45//45 61//61 60//60
f 45//45 62//62 61//61
f 46//46 62//62 45//45
f 47//47 62//62 46//46
f 47//47 63//63 62//62
f 47//47 64//64 63//63
f 48//48 64//64 47//47
f 49//49 64//64 33//33
f 49//49 65//65 64//64
f 50//50 65//65 49//49
f 50//50 66//66 65//65
f 50//50 67//67 66//66
f 51//51 67//67 50//50
f 52//52 67//67 51//51
f 52//52 68//68 67//67
f 52//52 69//69 68//68
f 53//53 69//69 52//52
f 54//54 69//69 53//53
f 54//54 70//70 69//69
f 54//54 71//71 70//70
f 55//55 71//71 54//54
f 56//56 71//71 55//55
f 56//56 72//72 71//71
f 56//56 73//73 72//72
f 57//57 73//73 56//56
f 58//58 73//73 57//57
f 58//58 74//74 73//73
f 58//58 75//75 74//74
f 59//59 75//75 58//58
f 60//60 75//75 59//59
f 60//60 76//76 75//75
f 60//60 77//77 76//76
f 61//61 77//77 60//60
f 62//62 77//77 61//61
f 62//62 78//78 77//77
f 62//62 79//79 78//78
f 63//63 79//79 62//62
f 64//64 79//79 63//63
f 64//64 80//80 79//79
f 65//65 80//80 64//64
f 65//65 82//82 81//81
f 65//65 96//96 80//80
f 66//66 82//82 65//65
f 67//67 82//82 66//66
f 67//67 83//83 82//82
f 67//67 84//84 83//83
f 68//68 84//84 67//67
f 69//69 84//84 68//68
f 69//69 85//85 84//84
f 69//69 86//86 85//85
f 70//70 86//86 69//69
f 71//71 86//86 70//70
f 71//71 87//87 86//86
f 71//71 88//88 87//87
f 72//72 88//88 71//71
f 73//73 88//88 72//72
f 73//73 89//89 88//88
f 73//73 90//90 89//89
f 74//74 90//90 73//73
f 75//75 90//90 74//74
f 75//75 91//91 90//90
f 75//75 92//92 91//91
f 76//76 92//92 75//75
f 77//77 92//92 76//76
f 77//77 93//93 92//92
f 77//77 94//94 93//93
f 78//78 94//94 77//77
f 79//79 94//94 78//78
f 79//79 95//95 94//94
f 79//79 96//96 95//95
f 80//80 96//96 79//79
f 81//81 96//96 65//65
f 81//81 97//97 96//96
f 82//82 97//97 81//81
f 82//82 98//98 97//97
f 82//82 99//99 98//98
f 83//83 99//99 82//82
f 84//84 99//99 83//83
f 84//84 100//100 99//99
f 84//84 101//101 100//100
f 85//85 101//101 84//84
f 86//86 101//101 85//85
f 86//86 102//102 101//101
f 86//86 103//103 102//102
f 87//87 103//103 86//86
f 88//88 103//103 87//87
f 88//88 104//104 103//103
f 88//88 105//105 104//104
f 89//89 105//105 88//88
f 90//90 105//105 89//89
f 90//90 106//106 105//105
f 90//90 107//107 106//106
f 91//91 107//107 90//90
f 92//92 107//107 91//91
f 92//92 108//108 107//107
f 92//92 109//109 108//108
f 93//93 109//109 92//92
f 94//94 109//109 93//93
f 94//94 110//110 109//109
f 94//94 111//111 110//110
f 95//95 111//111 94//94
f 96//96 111//111 95//95
f 96//96 112//112 111//111
f 97//97 112//112 96//96
f 97//97 127//127 126//126 112//112
f 98//98 128//128 127//127 97//97
f 99//99 113//113 128//128 98//98
f 100//100 114//114 113//113 99//99
f 101//101 115//115 114//114 100//100
f 102//102 116//116 115//115 101//101
f 103//103 117//117 116//116 102//102
f 104//104 118//118 117//117 103//103
f 105//105 119//119 118//118 104//104
f 106//106 120//120 119//119 105//105
f 107//107 121//121 120//120 106//106
f 108//108 122//122 121//121 107//107
f 109//109 123//123 122//122 108//108
f 110//110 124//124 123//123 109//109
f 111//111 125//125 124//124 110//110
f 112//112 126//126 125//125 111//111
