# Exported from Wings 3D 1.5.1
mtllib x4.mtl
o text5
#54 vertices, 53 faces
v 0.71005901 1.00282364 -0.18689000
v 0.94985901 0.57772204 -0.18689000
v 0.68255901 0.57772204 -0.18689000
v 0.54835901 0.85054844 -0.18689000
v 0.41415901 0.57772204 -0.18689000
v 0.14685901 0.57772204 -0.18689000
v 0.38665901 1.00282364 -0.18689000
v 0.16665901 1.38668404 -0.18689000
v 0.44055901 1.38668404 -0.18689000
v 0.54835901 1.16778844 -0.18689000
v 0.65615901 1.38668404 -0.18689000
v 0.93005901 1.38668404 -0.18689000
v 0.71005901 1.00282364 0.18689000
v 0.94985901 0.57772204 0.18689000
v 0.68255901 0.57772204 0.18689000
v 0.54835901 0.85054844 0.18689000
v 0.41415901 0.57772204 0.18689000
v 0.14685901 0.57772204 0.18689000
v 0.38665901 1.00282364 0.18689000
v 0.16665901 1.38668404 0.18689000
v 0.44055901 1.38668404 0.18689000
v 0.54835901 1.16778844 0.18689000
v 0.65615901 1.38668404 0.18689000
v 0.93005901 1.38668404 0.18689000
v 8.0859013e-2 1.22806404 -0.18689000
v 8.0859013e-2 0.80772104 -0.18689000
v -0.53844099 0.80772104 -0.18689000
v -0.53844099 0.57772204 -0.18689000
v -0.76944099 0.57772204 -0.18689000
v -0.76944099 0.80772104 -0.18689000
v -0.88714099 0.80772104 -0.18689000
v -0.88714099 1.06468544 -0.18689000
v -0.76944099 1.06468544 -0.18689000
v -0.76944099 1.72613084 -0.18689000
v -0.48784099 1.72613084 -0.18689000
v -0.11054099 1.06785784 -0.18689000
v -0.53844099 1.45013204 -0.18689000
v -0.53844099 1.06468544 -0.18689000
v -0.11054099 1.06468544 -0.18689000
v 8.0859013e-2 1.22806404 0.18689000
v 8.0859013e-2 0.80772104 0.18689000
v -0.53844099 0.80772104 0.18689000
v -0.53844099 0.57772204 0.18689000
v -0.76944099 0.57772204 0.18689000
v -0.76944099 0.80772104 0.18689000
v -0.88714099 0.80772104 0.18689000
v -0.88714099 1.06468544 0.18689000
v -0.76944099 1.06468544 0.18689000
v -0.76944099 1.72613084 0.18689000
v -0.48784099 1.72613084 0.18689000
v -0.11054099 1.06785784 0.18689000
v -0.53844099 1.45013204 0.18689000
v -0.53844099 1.06468544 0.18689000
v -0.11054099 1.06468544 0.18689000
vn 0.50141254 -1.7097351e-3 -0.86520665
vn 0.61321965 -0.35814022 -0.70405770
vn -0.45538313 -0.73148996 -0.50749251
vn 4.9703285e-16 -0.28228659 -0.95933012
vn 0.45538313 -0.73148996 -0.50749251
vn -0.61321965 -0.35814022 -0.70405770
vn -0.50141254 -1.7097351e-3 -0.86520665
vn -0.61264939 0.35501114 -0.70613584
vn 0.45522824 0.73162462 -0.50743736
vn 4.2599568e-16 0.28253497 -0.95925700
vn -0.45522824 0.73162462 -0.50743736
vn 0.61264939 0.35501114 -0.70613584
vn 0.50141254 -1.7097351e-3 0.86520665
vn 0.61321965 -0.35814022 0.70405770
vn -0.45538313 -0.73148996 0.50749251
vn -3.1952112e-16 -0.28228659 0.95933012
vn 0.45538313 -0.73148996 0.50749251
vn -0.61321965 -0.35814022 0.70405770
vn -0.50141254 -1.7097351e-3 0.86520665
vn -0.61264939 0.35501114 0.70613584
vn 0.45522824 0.73162462 0.50743736
vn -3.9049604e-16 0.28253497 0.95925700
vn -0.45522824 0.73162462 0.50743736
vn 0.61264939 0.35501114 0.70613584
vn 0.61322349 0.27809413 -0.73933795
vn 0.40824829 -0.40824829 -0.81649658
vn 0.30151134 -0.30151134 -0.90453403
vn 0.57735027 -0.57735027 -0.57735027
vn -0.57735027 -0.57735027 -0.57735027
vn -0.30151134 -0.30151134 -0.90453403
vn -0.57735027 -0.57735027 -0.57735027
vn -0.57735027 0.57735027 -0.57735027
vn -0.30151134 0.30151134 -0.90453403
vn -0.40824829 0.40824829 -0.81649658
vn 0.24050308 0.63964743 -0.73007495
vn -0.61533276 -0.27540159 -0.73859296
vn 0.10734695 -0.23984644 -0.96485767
vn 0.30151134 0.30151134 -0.90453403
vn -0.40824829 0.40824829 -0.81649658
vn 0.61322349 0.27809413 0.73933795
vn 0.40824829 -0.40824829 0.81649658
vn 0.30151134 -0.30151134 0.90453403
vn 0.57735027 -0.57735027 0.57735027
vn -0.57735027 -0.57735027 0.57735027
vn -0.30151134 -0.30151134 0.90453403
vn -0.57735027 -0.57735027 0.57735027
vn -0.57735027 0.57735027 0.57735027
vn -0.30151134 0.30151134 0.90453403
vn -0.40824829 0.40824829 0.81649658
vn 0.24050308 0.63964743 0.73007495
vn -0.61533276 -0.27540159 0.73859296
vn 0.10734695 -0.23984644 0.96485767
vn 0.30151134 0.30151134 0.90453403
vn -0.40824829 0.40824829 0.81649658
g text5_default
usemtl default
s 1
f 1//1 13//13 14//14 2//2
f 2//2 3//3 4//4 1//1
f 2//2 14//14 15//15 3//3
f 3//3 15//15 16//16 4//4
f 4//4 7//7 10//10 1//1
f 4//4 16//16 17//17 5//5
f 5//5 6//6 7//7 4//4
f 5//5 17//17 18//18 6//6
f 6//6 18//18 19//19 7//7
f 7//7 19//19 20//20 8//8
f 8//8 9//9 10//10 7//7
f 8//8 20//20 21//21 9//9
f 9//9 21//21 22//22 10//10
f 10//10 11//11 12//12 1//1
f 10//10 22//22 23//23 11//11
f 11//11 23//23 24//24 12//12
f 12//12 24//24 13//13 1//1
f 13//13 16//16 15//15 14//14
f 13//13 22//22 19//19 16//16
f 13//13 24//24 23//23 22//22
f 16//16 19//19 18//18 17//17
f 19//19 22//22 21//21 20//20
f 25//25 36//36 37//37 35//35
f 25//25 40//40 41//41 26//26
f 26//26 39//39 36//36 25//25
f 26//26 41//41 42//42 27//27
f 27//27 38//38 39//39 26//26
f 27//27 42//42 43//43 28//28
f 28//28 29//29 30//30 27//27
f 28//28 43//43 44//44 29//29
f 29//29 44//44 45//45 30//30
f 30//30 33//33 38//38 27//27
f 30//30 45//45 46//46 31//31
f 31//31 32//32 33//33 30//30
f 31//31 46//46 47//47 32//32
f 32//32 47//47 48//48 33//33
f 33//33 48//48 49//49 34//34
f 34//34 37//37 38//38 33//33
f 34//34 49//49 50//50 35//35
f 35//35 37//37 34//34
f 35//35 50//50 40//40 25//25
f 36//36 51//51 52//52 37//37
f 37//37 52//52 53//53 38//38
f 38//38 53//53 54//54 39//39
f 39//39 54//54 51//51 36//36
f 40//40 51//51 54//54 41//41
f 41//41 54//54 53//53 42//42
f 42//42 45//45 44//44 43//43
f 42//42 53//53 48//48 45//45
f 45//45 48//48 47//47 46//46
f 48//48 53//53 52//52 49//49
f 49//49 52//52 50//50
f 50//50 52//52 51//51 40//40
