# Exported from Wings 3D 1.5.1
mtllib flatbox.mtl
o Cube1
#8 vertices, 6 faces
v -0.50000000 -2.5000000e-4 -0.50000000
v -0.50000000 -2.5000000e-4 0.50000000
v -0.50000000 2.5000000e-4 -0.50000000
v -0.50000000 2.5000000e-4 0.50000000
v 0.50000000 -2.5000000e-4 -0.50000000
v 0.50000000 -2.5000000e-4 0.50000000
v 0.50000000 2.5000000e-4 -0.50000000
v 0.50000000 2.5000000e-4 0.50000000
vt 8.2844444e-4 0.99876600
vt 8.2844444e-4 9.3400000e-4
vt 1.2444444e-3 1.0222222e-3
vt 1.2444444e-3 0.99702222
vt 0.17962222 0.99685000
vt 0.17962222 0.99710000
vt 0.17976667 0.99717778
vt 0.17976667 0.99742778
vt 0.20583333 0.99786111
vt 0.20583333 0.99811111
vt 0.20626667 0.99811111
vt 0.20626667 0.99836111
vt 0.67962222 0.99685000
vt 0.67962222 0.99710000
vt 0.67976667 0.99717778
vt 0.67976667 0.99742778
vt 0.70583333 0.99786111
vt 0.70583333 0.99811111
vt 0.70626667 0.99836111
vt 0.70626667 0.99811111
vt 0.99724444 1.0222222e-3
vt 0.99724444 0.99702222
vt 0.99866044 0.99876600
vt 0.99866044 9.3400000e-4
vn -0.57735027 -0.57735027 -0.57735027
vn -0.57735027 -0.57735027 0.57735027
vn -0.57735027 0.57735027 -0.57735027
vn -0.57735027 0.57735027 0.57735027
vn 0.57735027 -0.57735027 -0.57735027
vn 0.57735027 -0.57735027 0.57735027
vn 0.57735027 0.57735027 -0.57735027
vn 0.57735027 0.57735027 0.57735027
g Cube1_Cube1_auv
usemtl Cube1_auv
s 1
f 1/22/1 5/4/5 6/3/6 2/21/2
f 2/20/2 4/19/4 3/12/3 1/11/1
f 2/7/2 6/15/6 8/16/8 4/8/4
f 3/18/3 7/10/7 5/9/5 1/17/1
f 4/2/4 8/24/8 7/23/7 3/1/3
f 5/13/5 7/14/7 8/6/8 6/5/6
