# Exported from Wings 3D 1.5.1
mtllib PushRight.mtl
o Cube2
#14 vertices, 11 faces
v -0.84163380 0.57523379 -3.2572000e-2
v -0.84163380 0.57523379 3.2572000e-2
v -1.22098245 0.72545586 -3.2572000e-2
v -1.22098245 0.72545586 3.2572000e-2
v -0.88498793 0.55806556 -3.2572000e-2
v -0.88498793 0.55806556 3.2572000e-2
v -1.26433658 0.70828762 -3.2572000e-2
v -1.26433658 0.70828762 3.2572000e-2
v -1.17438111 0.70700173 3.2572000e-2
v -1.17438111 0.70700173 -3.2572000e-2
v -0.84935522 0.83571198 -3.2572000e-2
v -0.84935522 0.83571198 3.2572000e-2
v -0.89595656 0.85416611 3.2572000e-2
v -0.89595656 0.85416611 -3.2572000e-2
vn 0.59294993 4.4699762e-16 -0.80523933
vn 0.59294993 4.4699762e-16 0.80523933
vn -0.26034428 0.65743506 -0.70710678
vn -0.26034428 0.65743506 0.70710678
vn 8.9392375e-16 -0.88072268 -0.47363231
vn 8.9392375e-16 -0.88072268 0.47363231
vn -0.59294993 -8.9399525e-17 -0.80523933
vn -0.59294993 -8.9399525e-17 0.80523933
vn 0.34550817 -1.0418508e-16 0.93841574
vn 0.34550817 -1.0418508e-16 -0.93841574
vn 0.59294993 -1.7879905e-16 -0.80523933
vn 0.59294993 -1.7879905e-16 0.80523933
vn 2.3662688e-16 0.88072268 0.47363231
vn 2.3662688e-16 0.88072268 -0.47363231
g Cube2_default
usemtl default
s 1
f 1//1 5//5 7//7 3//3 10//10
f 1//1 10//10 9//9 2//2
f 2//2 6//6 5//5 1//1
f 3//3 7//7 8//8 4//4
f 3//3 14//14 11//11 10//10
f 4//4 13//13 14//14 3//3
f 6//6 8//8 7//7 5//5
f 9//9 4//4 8//8 6//6 2//2
f 9//9 12//12 13//13 4//4
f 10//10 11//11 12//12 9//9
f 11//11 14//14 13//13 12//12
