# Exported from Wings 3D 1.5.1
mtllib slantblock.mtl
o Box001
#104 vertices, 114 faces
v -0.87345850 0.92279320 0.49953760
v 0.87307590 0.68230360 0.33252000
v -1.04047610 0.92279320 -0.33213920
v 0.87307590 0.68230360 -0.33213920
v -0.87345850 1.25407320 0.49953760
v 1.03996230 1.25407320 0.33252000
v -1.04047610 1.25407320 -0.33213920
v 0.87307590 1.25407320 -0.49902560
v -1.04047610 0.92279320 0.33252000
v -0.87345850 0.68230360 0.33252000
v 1.03996230 0.92279320 0.33252000
v 0.87307590 0.92279320 0.49953760
v -0.87345850 0.92279320 -0.49902560
v -0.87345850 0.68230360 -0.33213920
v 0.87307590 0.92279320 -0.49902560
v 1.03996230 0.92279320 -0.33213920
v -0.87345850 1.49443160 0.33252000
v -1.04047610 1.25407320 0.33252000
v 0.87307590 1.49443160 0.33252000
v 0.87307590 1.25407320 0.49953760
v -0.87345850 1.49443160 -0.33213920
v -0.87345850 1.25407320 -0.49902560
v 0.87307590 1.49443160 -0.33213920
v 1.03996230 1.25407320 -0.33213920
v -1.02184570 0.92279320 0.42527840
v -0.96621690 0.92279320 0.48090720
v -0.96621690 0.70906840 0.33252000
v -1.02184570 0.78923160 0.33252000
v -0.87345850 0.78923160 0.48090720
v -0.87345850 0.70906840 0.42527840
v 1.02146310 0.78923160 0.33252000
v 0.96583430 0.70906840 0.33252000
v 0.96583430 0.92279320 0.48090720
v 1.02146310 0.92279320 0.42527840
v 0.87307590 0.70906840 0.42527840
v 0.87307590 0.78923160 0.48090720
v -0.96621690 0.92279320 -0.48052640
v -1.02184570 0.92279320 -0.42489760
v -0.87345850 0.70906840 -0.42489760
v -0.87345850 0.78923160 -0.48052640
v -1.02184570 0.78923160 -0.33213920
v -0.96621690 0.70906840 -0.33213920
v 0.87307590 0.78923160 -0.48052640
v 0.87307590 0.70906840 -0.42489760
v 1.02146310 0.92279320 -0.42489760
v 0.96583430 0.92279320 -0.48052640
v 0.96583430 0.70906840 -0.33213920
v 1.02146310 0.78923160 -0.33213920
v -0.87345850 1.46779800 0.42527840
v -0.87345850 1.38763480 0.48090720
v -1.02184570 1.38763480 0.33252000
v -0.96621690 1.46779800 0.33252000
v -0.96621690 1.25407320 0.48090720
v -1.02184570 1.25407320 0.42527840
v 0.96583430 1.46779800 0.33252000
v 1.02146310 1.38763480 0.33252000
v 0.87307590 1.38763480 0.48090720
v 0.87307590 1.46779800 0.42527840
v 1.02146310 1.25407320 0.42527840
v 0.96583430 1.25407320 0.48090720
v -0.96621690 1.46779800 -0.33213920
v -1.02184570 1.38763480 -0.33213920
v -0.87345850 1.38763480 -0.48052640
v -0.87345850 1.46779800 -0.42489760
v -1.02184570 1.25407320 -0.42489760
v -0.96621690 1.25407320 -0.48052640
v 0.87307590 1.46779800 -0.42489760
v 0.87307590 1.38763480 -0.48052640
v 1.02146310 1.38763480 -0.33213920
v 0.96583430 1.46779800 -0.33213920
v 0.96583430 1.25407320 -0.48052640
v 1.02146310 1.25407320 -0.42489760
v -1.00531450 0.80405720 0.42527840
v -0.95585210 0.84853400 0.48090720
v -0.95585210 0.73281560 0.42527840
v -0.92502010 0.80405720 0.48090720
v 1.00493190 0.78923160 0.41504480
v 0.95546950 0.70906840 0.38408160
v 0.95546950 0.78923160 0.46450720
v 0.92450630 0.70906840 0.41504480
v -0.96621690 0.80405720 -0.46399520
v -1.02184570 0.84853400 -0.41453280
v -0.96621690 0.73281560 -0.41453280
v -1.02184570 0.80405720 -0.38370080
v 0.95546950 0.78923160 -0.46399520
v 0.92450630 0.70906840 -0.41453280
v 1.00493190 0.78923160 -0.41453280
v 0.95546950 0.70906840 -0.38370080
v -0.95585210 1.44405080 0.42527840
v -0.92502010 1.37280920 0.48090720
v -1.00531450 1.37280920 0.42527840
v -0.95585210 1.32833240 0.48090720
v 0.96583430 1.44405080 0.41504480
v 1.02146310 1.37280920 0.38408160
v 0.96583430 1.37280920 0.46450720
v 1.02146310 1.32833240 0.41504480
v -0.96621690 1.44405080 -0.41453280
v -1.02184570 1.37280920 -0.38370080
v -0.96621690 1.37280920 -0.46399520
v -1.02184570 1.32833240 -0.41453280
v 0.95546950 1.44405080 -0.42489760
v 0.92450630 1.37280920 -0.48052640
v 1.00493190 1.37280920 -0.42489760
v 0.95546950 1.32833240 -0.48052640
vt -0.42780000 0.10000000
vt -0.42780000 0.90000000
vt -0.25180000 0.10000000
vt -0.25180000 0.90000000
vt -0.23040000 0.16790000
vt -0.23040000 0.42410000
vt -0.23040000 0.57590000
vt -0.23040000 0.83210000
vt -0.14190000 -4.4200000e-2
vt -0.14190000 1.04420000
vt -0.12800000 0.12170000
vt -0.12800000 0.20710000
vt -0.12800000 0.79290000
vt -0.12800000 0.87830000
vt -9.3500000e-2 0.20710000
vt -9.3500000e-2 0.90680000
vt -8.3900000e-2 0.27830000
vt -8.3900000e-2 0.72170000
vt -7.5900000e-2 0.10000000
vt -7.5900000e-2 0.90000000
vt -7.2400000e-2 1.1300000e-2
vt -7.2400000e-2 0.98870000
vt -5.3100000e-2 0.11880000
vt -5.3100000e-2 0.88120000
vt -5.2000000e-2 1.00850000
vt -2.6200000e-2 0.13480000
vt 0.0000000e+0 0.0000000e+0
vt 0.0000000e+0 1.00000000
vt 1.0100000e-2 0.12140000
vt 1.0100000e-2 0.90700000
vt 2.8700000e-2 0.96050000
vt 3.5100000e-2 7.5400000e-2
vt 8.0200000e-2 0.16720000
vt 8.0200000e-2 0.83280000
vt 8.6100000e-2 -2.1600000e-2
vt 8.6100000e-2 1.02160000
vt 9.0700000e-2 1.8900000e-2
vt 9.0700000e-2 0.98110000
vt 9.5400000e-2 5.9500000e-2
vt 9.5400000e-2 0.94050000
vt 0.10000000 0.10000000
vt 0.10000000 0.90000000
vt 0.14840000 0.25160000
vt 0.14840000 0.74840000
vt 0.19690000 0.40320000
vt 0.19690000 0.59680000
vt 0.24530000 0.44520000
vt 0.24530000 0.55480000
vt 0.75470000 0.44520000
vt 0.75470000 0.55480000
vt 0.80310000 0.40320000
vt 0.80310000 0.59680000
vt 0.85160000 0.25160000
vt 0.85160000 0.74840000
vt 0.90000000 0.10000000
vt 0.90000000 0.90000000
vt 0.90460000 5.9500000e-2
vt 0.90460000 0.94050000
vt 0.90930000 1.8900000e-2
vt 0.90930000 0.98110000
vt 0.91390000 -2.1600000e-2
vt 0.91390000 1.02160000
vt 0.91980000 0.16720000
vt 0.91980000 0.83280000
vt 1.07590000 0.10000000
vt 1.07590000 0.90000000
vt 1.25180000 0.10000000
vt 1.25180000 0.90000000
vt 1.42780000 0.10000000
vt 1.42780000 0.90000000
vn -9.5632818e-2 -6.6829546e-2 0.99317077
vn 0.13554646 -0.98144186 0.13564306
vn -0.99317077 -6.6829546e-2 -9.5632818e-2
vn 0.13561010 -0.98142188 -0.13572396
vn -9.5632818e-2 6.6829546e-2 0.99317077
vn 0.99327268 6.6333310e-2 9.4917180e-2
vn -0.99317077 6.6829546e-2 -9.5632818e-2
vn 9.4955193e-2 6.6406023e-2 -0.99326419
vn -0.99273283 -6.8881156e-2 9.8675765e-2
vn -0.13870958 -0.98057091 0.13870958
vn 0.99281177 -6.8503848e-2 9.8142821e-2
vn 9.8518640e-2 -6.8772025e-2 0.99275601
vn -9.8159597e-2 -6.8515500e-2 -0.99280931
vn -0.13870958 -0.98057091 -0.13870958
vn 9.8177902e-2 -6.8528213e-2 -0.99280662
vn 0.99280662 -6.8528213e-2 -9.8177902e-2
vn -0.13821928 0.98070936 0.13821928
vn -0.99273283 6.8881156e-2 9.8675765e-2
vn 0.13817394 0.98072214 0.13817394
vn 9.8500335e-2 6.8759311e-2 0.99275870
vn -0.13821928 0.98070936 -0.13821928
vn -9.8159597e-2 6.8515500e-2 -0.99280931
vn 0.13821928 0.98070936 -0.13821928
vn 0.99280931 6.8515500e-2 -9.8159597e-2
vn -0.87968298 -6.1070015e-2 0.47162305
vn -0.47163567 -3.2809614e-2 0.88118291
vn -0.57852134 -0.80472834 0.13313660
vn -0.92588364 -0.36140006 0.11013392
vn -5.1955299e-2 -0.36290547 0.93037641
vn -0.11451298 -0.80589435 0.58087957
vn 0.92742835 -0.36249466 9.2055828e-2
vn 0.58122133 -0.81167456 5.8018720e-2
vn 0.47076217 -7.2050186e-2 0.87931323
vn 0.87949240 -7.2033303e-2 0.47042994
vn 5.7545437e-2 -0.81165868 0.58129055
vn 9.1769217e-2 -0.36271842 0.92736927
vn -0.47116448 -6.0954308e-2 -0.87993671
vn -0.88118291 -3.2809614e-2 -0.47163567
vn -0.13313660 -0.80472834 -0.57852134
vn -0.10996446 -0.36105636 -0.92603786
vn -0.93037641 -0.36290547 -5.1955299e-2
vn -0.58087957 -0.80589435 -0.11451298
vn 9.2170422e-2 -0.36252473 -0.92740522
vn 5.8137533e-2 -0.81167852 -0.58120393
vn 0.87946565 -7.2234875e-2 -0.47044903
vn 0.47044903 -7.2234875e-2 -0.87946565
vn 0.58123499 -0.81166161 -5.8063111e-2
vn 0.92742022 -0.36249578 -9.2133256e-2
vn -0.11437173 0.80620598 0.58047483
vn -5.1955299e-2 0.36290547 0.93037641
vn -0.92588364 0.36140006 0.11013392
vn -0.57811692 0.80504178 0.13299831
vn -0.47163567 3.2809614e-2 0.88118291
vn -0.87968298 6.1070015e-2 0.47162305
vn 0.58045752 0.80623123 0.11428153
vn 0.93056429 0.36243916 5.1845532e-2
vn 0.10967789 0.36130781 0.92597377
vn 0.13266464 0.80509548 0.57811881
vn 0.88147992 3.2436855e-2 0.47110614
vn 0.47141814 6.0705245e-2 0.87981805
vn -0.58047483 0.80620598 -0.11437173
vn -0.93037641 0.36290547 -5.1955299e-2
vn -0.10996446 0.36105636 -0.92603786
vn -0.13299831 0.80504178 -0.57811692
vn -0.88118291 3.2809614e-2 -0.47163567
vn -0.47116448 6.0954308e-2 -0.87993671
vn 0.11440626 0.80618408 -0.58049843
vn 5.1948257e-2 0.36242295 -0.93056487
vn 0.92603786 0.36105636 -0.10996446
vn 0.57811692 0.80504178 -0.13299831
vn 0.47103596 3.2767767e-2 -0.88150519
vn 0.87993671 6.0954308e-2 -0.47116448
vn -0.80432339 -0.30944939 0.50725237
vn -0.41022544 -0.15394353 0.89889737
vn -0.48382679 -0.66353748 0.57063968
vn -0.22642276 -0.30326798 0.92561399
vn 0.81660686 -0.37812364 0.43609145
vn 0.49966862 -0.82445044 0.26573059
vn 0.43583389 -0.37816139 0.81672687
vn 0.26527688 -0.82452141 0.49979258
vn -0.50711357 -0.30934919 -0.80444944
vn -0.89889737 -0.15394353 -0.41022544
vn -0.57063968 -0.66353748 -0.48382679
vn -0.92561399 -0.30326798 -0.22642276
vn 0.43604125 -0.37819092 -0.81660251
vn 0.26566611 -0.82431527 -0.49992585
vn 0.81645909 -0.37820306 -0.43629921
vn 0.49954763 -0.82440453 -0.26610024
vn -0.48371627 0.66370486 0.57053871
vn -0.22642276 0.30326798 0.92561399
vn -0.80432339 0.30944939 0.50725237
vn -0.41022544 0.15394353 0.89889737
vn 0.57040654 0.66391266 0.48358696
vn 0.92586958 0.30293735 0.22581957
vn 0.50698773 0.30924798 0.80456767
vn 0.89928652 0.15351196 0.40953367
vn -0.57053871 0.66370486 -0.48371627
vn -0.92561399 0.30326798 -0.22642276
vn -0.50711357 0.30934919 -0.80444944
vn -0.89889737 0.15394353 -0.41022544
vn 0.48357598 0.66371334 -0.57064776
vn 0.22595190 0.30293581 -0.92583780
vn 0.80434123 0.30941667 -0.50724404
vn 0.40947467 0.15385751 -0.89925434
g Box001_default
usemtl default
s 1
f 1/41/1 12/55/12 20/56/20 5/42/5
f 1/41/1 29/39/29 36/57/36 12/55/12
f 1/41/1 76/27/76 29/27/29
f 2/33/2 10/63/10 14/64/14 4/34/4
f 2/61/2 35/59/35 30/37/30 10/35/10
f 2/33/2 80/27/80 35/27/35
f 3/41/3 9/55/9 18/56/18 7/42/7
f 3/41/3 41/43/41 28/53/28 9/55/9
f 3/41/3 84/27/84 41/27/41
f 4/50/4 47/51/47 32/45/32 2/48/2
f 4/34/4 88/28/88 47/28/47
f 5/70/5 53/68/53 26/67/26 1/69/1
f 5/42/5 92/28/92 53/28/53
f 6/42/6 59/20/59 34/19/34 11/41/11
f 6/42/6 96/28/96 59/28/59
f 7/42/7 65/20/65 38/19/38 3/41/3
f 7/42/7 100/28/100 65/28/65
f 8/42/8 71/20/71 46/19/46 15/41/15
f 8/42/8 104/28/104 71/28/71
f 9/55/9 25/65/25 54/66/54 18/56/18
f 9/17/9 28/23/28 73/27/73 25/26/25
f 10/50/10 27/51/27 42/45/42 14/48/14
f 10/9/10 30/27/30 75/27/75 27/21/27
f 11/41/11 16/55/16 24/56/24 6/42/6
f 11/41/11 31/43/31 48/53/48 16/55/16
f 11/6/11 34/12/34 77/27/77 31/15/31
f 12/1/12 33/3/33 60/4/60 20/2/20
f 12/5/12 36/27/36 79/27/79 33/11/33
f 13/1/13 37/3/37 66/4/66 22/2/22
f 13/17/13 40/23/40 81/27/81 37/26/37
f 14/61/14 39/59/39 44/37/44 4/35/4
f 14/9/14 42/27/42 83/27/83 39/21/39
f 15/41/15 13/55/13 22/56/22 8/42/8
f 15/41/15 43/39/43 40/57/40 13/55/13
f 15/8/15 46/14/46 85/28/85 43/16/43
f 16/1/16 45/3/45 72/4/72 24/2/24
f 16/7/16 48/28/48 87/28/87 45/13/45
f 17/36/17 49/38/49 58/60/58 19/62/19
f 17/10/17 52/22/52 89/28/89 49/25/49
f 18/56/18 51/54/51 62/44/62 7/42/7
f 18/18/18 54/28/54 91/28/91 51/24/51
f 19/63/19 23/64/23 21/34/21 17/33/17
f 19/47/19 55/46/55 70/52/70 23/49/23
f 19/10/19 58/22/58 93/28/93 55/25/55
f 20/56/20 57/58/57 50/40/50 5/42/5
f 20/18/20 60/28/60 95/28/95 57/24/57
f 21/47/21 61/46/61 52/52/52 17/49/17
f 21/10/21 64/22/64 97/28/97 61/25/61
f 22/56/22 63/58/63 68/40/68 8/42/8
f 22/18/22 66/28/66 99/28/99 63/24/63
f 23/36/23 67/38/67 64/60/64 21/62/21
f 23/10/23 70/22/70 101/28/101 67/25/67
f 24/56/24 69/54/69 56/44/56 6/42/6
f 24/18/24 72/28/72 103/28/103 69/24/69
f 25/26/25 73/27/73 74/27/74 26/32/26
f 26/67/26 53/68/53 54/66/54 25/65/25
f 26/32/26 74/27/74 1/41/1
f 27/21/27 75/27/75 73/27/73 28/23/28
f 28/53/28 41/43/41 42/45/42 27/51/27
f 29/27/29 76/27/76 75/27/75 30/27/30
f 30/37/30 35/59/35 36/57/36 29/39/29
f 31/15/31 77/27/77 78/27/78 32/29/32
f 32/45/32 47/51/47 48/53/48 31/43/31
f 32/29/32 78/27/78 2/33/2
f 33/11/33 79/27/79 77/27/77 34/12/34
f 34/19/34 59/20/59 60/4/60 33/3/33
f 35/27/35 80/27/80 79/27/79 36/27/36
f 37/26/37 81/27/81 82/27/82 38/32/38
f 38/19/38 65/20/65 66/4/66 37/3/37
f 38/32/38 82/27/82 3/41/3
f 39/21/39 83/27/83 81/27/81 40/23/40
f 40/57/40 43/39/43 44/37/44 39/59/39
f 41/27/41 84/27/84 83/27/83 42/27/42
f 43/16/43 85/28/85 86/28/86 44/30/44
f 44/30/44 86/28/86 4/34/4
f 45/13/45 87/28/87 85/28/85 46/14/46
f 46/19/46 71/20/71 72/4/72 45/3/45
f 47/28/47 88/28/88 87/28/87 48/28/48
f 49/25/49 89/28/89 90/28/90 50/31/50
f 50/40/50 57/58/57 58/60/58 49/38/49
f 50/31/50 90/28/90 5/42/5
f 51/24/51 91/28/91 89/28/89 52/22/52
f 52/52/52 61/46/61 62/44/62 51/54/51
f 53/28/53 92/28/92 91/28/91 54/28/54
f 55/25/55 93/28/93 94/28/94 56/31/56
f 56/44/56 69/54/69 70/52/70 55/46/55
f 56/31/56 94/28/94 6/42/6
f 57/24/57 95/28/95 93/28/93 58/22/58
f 59/28/59 96/28/96 95/28/95 60/28/60
f 61/25/61 97/28/97 98/28/98 62/31/62
f 62/31/62 98/28/98 7/42/7
f 63/24/63 99/28/99 97/28/97 64/22/64
f 64/60/64 67/38/67 68/40/68 63/58/63
f 65/28/65 100/28/100 99/28/99 66/28/66
f 67/25/67 101/28/101 102/28/102 68/31/68
f 68/31/68 102/28/102 8/42/8
f 69/24/69 103/28/103 101/28/101 70/22/70
f 71/28/71 104/28/104 103/28/103 72/28/72
f 73/27/73 75/27/75 76/27/76 74/27/74
f 74/27/74 76/27/76 1/41/1
f 77/27/77 79/27/79 80/27/80 78/27/78
f 78/27/78 80/27/80 2/33/2
f 81/27/81 83/27/83 84/27/84 82/27/82
f 82/27/82 84/27/84 3/41/3
f 85/28/85 87/28/87 88/28/88 86/28/86
f 86/28/86 88/28/88 4/34/4
f 89/28/89 91/28/91 92/28/92 90/28/90
f 90/28/90 92/28/92 5/42/5
f 93/28/93 95/28/95 96/28/96 94/28/94
f 94/28/94 96/28/96 6/42/6
f 97/28/97 99/28/99 100/28/100 98/28/98
f 98/28/98 100/28/100 7/42/7
f 101/28/101 103/28/103 104/28/104 102/28/102
f 102/28/102 104/28/104 8/42/8
