# Made in Blockbench 4.6.1
mtllib materials.mtl

o crystal
v 0.6035533905932737 1.1035533905932737 0.14644660940672627
v -0.25000000000000006 1.25 -0.3535533905932738
v 0.75 0.25 -0.35355339059327373
v -0.10355339059327379 0.39644660940672627 -0.8535533905932737
v -0.75 0.75 0.35355339059327373
v 0.10355339059327373 0.6035533905932737 0.8535533905932737
v -0.6035533905932737 -0.10355339059327373 -0.1464466094067262
v 0.25 -0.25 0.35355339059327373
vt 0 1
vt 1 1
vt 1 0
vt 0 0
vt 0 1
vt 1 1
vt 1 0
vt 0 0
vt 0 1
vt 1 1
vt 1 0
vt 0 0
vt 0 1
vt 1 1
vt 1 0
vt 0 0
vt 0 1
vt 1 1
vt 1 0
vt 0 0
vt 0 1
vt 1 1
vt 1 0
vt 0 0
vn -0.8535533905932737 0.1464466094067262 -0.5
vn 0.5 0.5 -0.7071067811865476
vn 0.8535533905932737 -0.1464466094067262 0.5
vn -0.5 -0.5 0.7071067811865476
vn -0.1464466094067262 0.8535533905932738 0.5
vn 0.1464466094067262 -0.8535533905932738 -0.5
usemtl m_98149d73-9de2-8706-03af-b866edbf90d4
f 4/4/1 7/3/1 5/2/1 2/1/1
f 3/8/2 4/7/2 2/6/2 1/5/2
f 8/12/3 3/11/3 1/10/3 6/9/3
f 7/16/4 8/15/4 6/14/4 5/13/4
f 6/20/5 1/19/5 2/18/5 5/17/5
f 7/24/6 4/23/6 3/22/6 8/21/6